<svg preserveAspectRatio="xMidYMid meet" viewBox="0 0 22 13.0058" fill="none" xmlns="http://www.w3.org/2000/svg">
<path id="Icon" d="M0 13.0058C0.166667 11.2558 0.7 9.6641 1.6 8.23077C2.5 6.79744 3.65833 5.63077 5.075 4.73077L3.15 1.50577C3 1.27244 2.9625 1.02244 3.0375 0.755769C3.1125 0.489103 3.26667 0.289103 3.5 0.155769C3.73333 0.00576923 3.98333 -0.0358974 4.25 0.0307692C4.51667 0.0974359 4.71667 0.247436 4.85 0.480769L6.85 3.80577C7.48333 3.5391 8.14583 3.3391 8.8375 3.20577C9.52917 3.07244 10.25 3.00577 11 3.00577C11.75 3.00577 12.4708 3.07244 13.1625 3.20577C13.8542 3.3391 14.5167 3.5391 15.15 3.80577L17.15 0.480769C17.2833 0.247436 17.4833 0.0974359 17.75 0.0307692C18.0167 -0.0358974 18.2667 0.00576923 18.5 0.155769C18.7333 0.289103 18.8833 0.489103 18.95 0.755769C19.0167 1.02244 18.9833 1.27244 18.85 1.50577L16.925 4.73077C18.3417 5.63077 19.5 6.79744 20.4 8.23077C21.3 9.6641 21.8333 11.2558 22 13.0058H0V13.0058M16.65 9.88077C16.8667 9.73077 16.9875 9.50994 17.0125 9.21827C17.0375 8.9266 16.9583 8.6391 16.775 8.35577C16.5917 8.07244 16.3667 7.8891 16.1 7.80577C15.8333 7.72244 15.5917 7.75577 15.375 7.90577C15.1583 8.05577 15.0333 8.27244 15 8.55577C14.9667 8.8391 15.0417 9.12244 15.225 9.40577C15.4083 9.6891 15.6375 9.8766 15.9125 9.96827C16.1875 10.0599 16.4333 10.0308 16.65 9.88077V9.88077M5.375 9.85577C5.59167 10.0058 5.83333 10.0391 6.1 9.95577C6.36667 9.87244 6.59167 9.6891 6.775 9.40577C6.95833 9.12244 7.0375 8.83494 7.0125 8.54327C6.9875 8.2516 6.86667 8.03077 6.65 7.88077C6.43333 7.73077 6.1875 7.7016 5.9125 7.79327C5.6375 7.88494 5.40833 8.07244 5.225 8.35577C5.04167 8.6391 4.96667 8.92244 5 9.20577C5.03333 9.4891 5.15833 9.70577 5.375 9.85577V9.85577" fill="#A4E6FF"/>
</svg>
